<svg width="24" height="24" viewBox="0 0 24 24" fill="none" xmlns="http://www.w3.org/2000/svg">
  <path fill="white" d="M12 2.1c-5.5 0-10 4.5-10 10 0 4.4 2.9 8.1 6.8 9.4 0.5 0.1 0.7-0.2 0.7-0.4v-1.6c-2.8 0.6-3.4-1.3-3.4-1.3-0.5-1.3-1.3-1.7-1.3-1.7-1.1-0.8 0.1-0.8 0.1-0.8 1.2 0 1.9 1.2 1.9 1.2 1.1 1.8 2.8 1.3 3.5 1.0 0.1-0.8 0.4-1.3 0.7-1.6-2.2-0.3-4.5-1.1-4.5-4.8 0-1.1 0.4-2.1 1.1-2.9-0.1-0.3-0.5-1.3 0.1-2.7 0 0 0.9-0.3 3.0 1.2 0.9-0.3 1.8-0.4 2.7-0.4 0.9 0 1.8 0.1 2.7 0.4 2.0-1.5 3.0-1.2 3.0-1.2 0.6 1.4 0.2 2.4 0.1 2.7 0.7 0.8 1.1 1.8 1.1 2.9 0 3.7-2.3 4.5-4.5 4.8 0.4 0.4 0.8 1.0 0.8 2.0v3.0c0 0.2 0.2 0.5 0.7 0.4 3.9-1.3 6.8-5.0 6.8-9.4 0-5.5-4.5-10-10-10z"/>
</svg>
